<?xml version="1.0" standalone="no"?>
<!DOCTYPE svg PUBLIC "-//W3C//DTD SVG 20010904//EN"
 "http://www.w3.org/TR/2001/REC-SVG-20010904/DTD/svg10.dtd">
<svg version="1.0" xmlns="http://www.w3.org/2000/svg"
 width="18" height="18" viewBox="0 0 137.000000 156.000000"
 preserveAspectRatio="xMidYMid meet">

<g transform="translate(0.000000,156.000000) scale(0.100000,-0.100000)"
fill="#000000" stroke="none">
<path d="M30 720 l0 -540 65 0 65 0 1 373 0 372 25 -49 c13 -28 28 -52 33 -56
6 -3 19 -26 31 -50 11 -25 27 -57 36 -72 8 -14 18 -47 23 -71 4 -25 18 -57 30
-72 11 -15 21 -36 21 -47 0 -11 14 -33 30 -50 19 -19 30 -40 30 -58 0 -31 28
-100 45 -112 5 -4 14 -29 20 -55 l10 -48 85 0 85 0 3 538 2 537 -85 0 -85 0
-1 -372 c-1 -299 -4 -364 -13 -328 -6 25 -19 56 -28 70 -10 13 -18 30 -18 37
0 7 -4 13 -10 13 -5 0 -10 16 -10 35 0 20 -8 43 -17 53 -24 25 -43 59 -43 75
0 8 -11 30 -24 49 -13 19 -26 55 -30 81 -4 25 -19 63 -34 84 -15 21 -35 55
-44 76 -10 20 -21 37 -26 37 -4 0 -14 20 -21 45 l-13 45 -69 0 -69 0 0 -540z"/>
<path d="M720 1175 l0 -85 125 0 125 0 0 -455 0 -455 75 0 75 0 0 455 0 455
115 0 115 0 0 85 0 85 -315 0 -315 0 0 -85z"/>
</g>
</svg>
